<?xml version="1.0" standalone="no"?>
<!DOCTYPE svg PUBLIC "-//W3C//DTD SVG 20010904//EN"
 "http://www.w3.org/TR/2001/REC-SVG-20010904/DTD/svg10.dtd">
<svg version="1.0" xmlns="http://www.w3.org/2000/svg"
 width="480.000000pt" height="70.000000pt" viewBox="0 0 480.000000 70.000000"
 preserveAspectRatio="xMidYMid meet">

<g transform="translate(0.000000,70.000000) scale(0.100000,-0.100000)"
fill="#000000" stroke="none">
<path d="M40 355 l0 -327 173 4 c148 4 180 7 228 26 76 30 142 90 176 159 23
49 27 69 27 142 0 142 -56 231 -178 288 -59 27 -68 28 -243 31 l-183 4 0 -327z
m316 180 c53 -16 96 -53 113 -98 18 -46 13 -126 -10 -173 -31 -65 -74 -87
-181 -92 l-88 -4 0 191 0 191 58 0 c32 0 81 -7 108 -15z"/>
<path d="M1015 368 c-71 -172 -131 -318 -133 -325 -3 -10 17 -13 81 -13 l85 0
22 65 22 65 127 0 127 0 24 -65 24 -65 88 0 c48 0 88 1 88 3 0 1 -60 146 -133
322 l-133 320 -80 3 -79 2 -130 -312z m285 -80 c0 -9 -144 -11 -153 -2 -5 5
21 82 63 189 12 30 12 29 51 -75 21 -58 39 -108 39 -112z"/>
<path d="M1730 615 l0 -64 93 -3 92 -3 3 -257 2 -258 75 0 75 0 0 260 0 260
95 0 95 0 0 65 0 65 -265 0 -265 0 0 -65z"/>
<path d="M2550 355 l0 -325 230 0 230 0 0 65 0 64 -152 3 -153 3 0 65 0 65
135 5 135 5 0 60 0 60 -138 3 -138 3 3 57 3 57 143 3 142 3 0 64 0 65 -220 0
-220 0 0 -325z"/>
<path d="M3340 356 l0 -326 75 0 75 0 0 130 0 130 28 0 c24 0 33 -12 97 -130
l70 -130 92 0 93 0 -81 133 c-45 72 -83 135 -86 140 -2 4 8 12 24 18 67 25
103 83 103 166 0 76 -24 120 -85 158 -48 30 -48 30 -227 33 l-178 4 0 -326z
m309 184 c28 -15 38 -57 20 -89 -17 -31 -66 -50 -131 -50 l-48 -1 0 81 0 82
69 -6 c39 -3 79 -11 90 -17z"/>
<path d="M4170 355 l0 -325 75 0 75 0 2 213 3 212 130 -212 130 -213 88 0 87
0 0 325 0 325 -76 0 -76 0 3 -205 c2 -113 2 -205 -1 -205 -3 0 -62 92 -130
205 l-125 204 -92 1 -93 0 0 -325z"/>
</g>
</svg>
