<?xml version="1.0" standalone="no"?>
<!DOCTYPE svg PUBLIC "-//W3C//DTD SVG 20010904//EN"
 "http://www.w3.org/TR/2001/REC-SVG-20010904/DTD/svg10.dtd">
<svg version="1.0" xmlns="http://www.w3.org/2000/svg"
 width="200.000000pt" height="200.000000pt" viewBox="0 0 200.000000 200.000000"
 preserveAspectRatio="xMidYMid meet">

<g transform="translate(0.000000,200.000000) scale(0.100000,-0.100000)"
fill="#000000" stroke="none">
<path d="M980 1505 l-235 -235 -237 0 c-146 0 -239 -4 -243 -10 -8 -13 -8
-507 0 -520 4 -6 87 -10 213 -10 l207 0 -98 -98 c-53 -53 -97 -102 -97 -107 0
-6 57 -68 128 -138 l127 -127 498 0 c273 0 497 3 497 8 1 4 1 121 1 261 l1
254 -108 108 -108 109 113 114 c101 103 111 117 101 135 -10 20 -18 21 -240
21 l-230 0 -2 233 -3 232 -25 3 c-21 2 -65 -37 -260 -233z m230 -55 l1 -180
-184 0 -183 0 180 180 c100 99 182 180 183 180 1 0 2 -81 3 -180z m-480 -450
l0 -211 -205 2 -205 1 0 208 0 208 205 1 205 2 0 -211z m475 0 l0 -205 -205 0
-205 0 -3 195 c-1 107 0 200 2 207 4 10 53 12 208 10 l203 -2 0 -205z m423
203 c-1 -4 -37 -41 -78 -80 l-76 -72 -78 78 -79 79 158 1 c86 1 155 -2 153 -6z
m2 -410 c0 -2 -81 -3 -180 -3 l-180 0 0 183 0 182 180 -179 c99 -99 180 -181
180 -183z m-420 -268 l0 -205 -209 0 -210 0 -1 205 -1 205 211 0 210 0 0 -205z
m470 0 l0 -205 -205 0 -205 0 0 205 0 205 205 0 205 0 0 -205z m-950 -2 l0
-158 -80 80 -80 80 77 77 c43 43 79 78 80 78 2 0 3 -71 3 -157z"/>
<path d="M405 1000 l0 -130 46 0 c45 0 46 0 45 32 -1 32 1 33 49 40 61 9 95
42 95 93 0 75 -32 95 -152 95 l-83 0 0 -130z m144 46 c9 -11 8 -18 -5 -30 -24
-25 -49 -16 -49 17 -1 21 4 27 21 27 12 0 27 -6 33 -14z"/>
<path d="M885 1000 l0 -130 115 0 115 0 1 35 1 35 -74 0 c-58 0 -73 3 -73 15
0 12 14 15 65 15 l65 0 0 30 0 30 -65 0 c-51 0 -65 3 -65 15 0 12 14 15 70 15
l70 0 0 35 0 35 -112 0 -113 0 0 -130z"/>
<path d="M902 532 c-29 -70 -52 -130 -52 -134 0 -5 21 -8 46 -8 37 0 47 4 51
20 4 16 14 20 49 20 33 0 46 -5 54 -20 8 -15 21 -20 55 -20 25 0 45 3 45 8 0
4 -23 64 -52 134 l-53 128 -45 0 -45 0 -53 -128z m108 -1 c0 -5 3 -16 6 -25 4
-12 0 -16 -16 -16 -16 0 -20 4 -16 16 3 9 6 20 6 25 0 5 5 9 10 9 6 0 10 -4
10 -9z"/>
<path d="M1340 525 l0 -135 45 0 c41 0 45 2 45 24 0 30 9 56 20 56 5 0 19 -18
31 -40 22 -39 24 -40 76 -40 41 0 52 3 47 13 -4 6 -25 40 -47 75 l-39 63 47
59 46 60 -54 0 c-53 0 -54 -1 -88 -47 l-34 -48 -3 48 -3 47 -45 0 -44 0 0
-135z"/>
</g>
</svg>
