<?xml version="1.0" encoding="UTF-8"?>
<svg version="1.1" xmlns="http://www.w3.org/2000/svg" width="3000" height="651">
<path d="M0 0 C76.56 0 153.12 0 232 0 C235.3 4.62 238.6 9.24 242 14 C244.26302759 17.08976067 246.53054192 20.17442225 248.8125 23.25 C253.4594527 29.53236915 258.06394382 35.84251831 262.625 42.1875 C266.68951256 47.83874634 270.80682512 53.44356084 275 59 C279.75432309 65.30002511 284.3976986 71.67297707 289.00610352 78.08032227 C294.68556315 85.96991123 300.45674297 93.79068749 306.23388672 101.60888672 C309.15956103 105.56991162 312.07950306 109.53515717 315 113.5 C316.1666389 115.08335379 317.33330558 116.66668712 318.5 118.25 C329 132.5 329 132.5 339.5 146.75 C340.07758057 147.53383057 340.65516113 148.31766113 341.25024414 149.12524414 C342.41620806 150.70768185 343.58206104 152.29020131 344.74780273 153.87280273 C347.67431443 157.84551887 350.60277534 161.81676994 353.53515625 165.78515625 C359.77471072 174.23340257 365.9706422 182.71006584 372.10791016 191.23291016 C377.75718083 199.06877486 383.49312892 206.83992854 389.23388672 214.60888672 C392.15956103 218.56991162 395.07950306 222.53515717 398 226.5 C399.1666389 228.08335379 400.33330558 229.66668712 401.5 231.25 C403.83333333 234.41666667 406.16666667 237.58333333 408.5 240.75 C409.07758057 241.53383057 409.65516113 242.31766113 410.25024414 243.12524414 C411.41620806 244.70768185 412.58206104 246.29020131 413.74780273 247.87280273 C416.67431443 251.84551887 419.60277534 255.81676994 422.53515625 259.78515625 C428.27423482 267.55599874 433.98429619 275.34488696 439.625 283.1875 C443.68967678 288.83863096 447.8068222 294.44355697 452 300 C456.74990486 306.29417045 461.38980489 312.66061478 465.99291992 319.06274414 C470.60760765 325.47482554 475.28313416 331.84053773 479.97998047 338.19262695 C484.35131356 344.10666818 488.67396883 350.05170714 493 356 C493.33 238.52 493.66 121.04 494 0 C605.43999873 -0.64530159 605.43999873 -0.64530159 651.953125 -0.78125 C661.92206468 -0.81058229 671.89100177 -0.84056984 681.85993373 -0.8724159 C683.21207734 -0.87673337 684.56422103 -0.88102731 685.91636479 -0.88529742 C707.46190798 -0.95353398 729.00677815 -1.07356813 750.55191474 -1.22075553 C773.32863156 -1.37607348 796.10500236 -1.47195916 818.88224006 -1.50541592 C832.52419149 -1.52736893 846.16421202 -1.59669421 859.80556902 -1.72666347 C869.16049721 -1.8112522 878.51442752 -1.83679981 887.86971036 -1.81602204 C893.26783138 -1.8057737 898.66257979 -1.82145236 904.06010056 -1.9072876 C909.00684576 -1.98537858 913.94796568 -1.98896954 918.89497444 -1.93438232 C920.67994669 -1.92764145 922.46527517 -1.94778169 924.2495499 -1.99813092 C937.21085639 -2.34248216 937.21085639 -2.34248216 941.8861019 1.58405614 C945.42973719 5.42114007 948.23319467 9.65463587 950.88595769 14.14010823 C952.28891298 16.48233973 953.87786086 18.65538115 955.5234375 20.83203125 C956.47525109 22.15792709 957.42579743 23.48473369 958.375 24.8125 C965.17095982 34.26698563 972.07947976 43.63649413 979 53 C986.42121495 63.04094886 993.81171806 73.10066404 1001.10791016 83.23291016 C1007.33662403 91.87249604 1013.66954014 100.4348494 1020 109 C1027.42121495 119.04094886 1034.81171806 129.10066404 1042.10791016 139.23291016 C1047.16321812 146.24491428 1052.28676668 153.20544936 1057.42578125 160.15625 C1059.91414823 163.52274261 1062.38880593 166.89882387 1064.85546875 170.28125 C1065.48654541 171.14435791 1066.11762207 172.00746582 1066.76782227 172.89672852 C1067.97546007 174.5488761 1069.18051994 176.20291218 1070.38256836 177.85913086 C1073.05106343 181.50299332 1075.65142181 184.93727605 1079 188 C1079.2774707 187.41549072 1079.55494141 186.83098145 1079.84082031 186.22875977 C1080.94279821 184.10998213 1082.14432542 182.26923807 1083.546875 180.33984375 C1084.05476563 179.63859375 1084.56265625 178.93734375 1085.0859375 178.21484375 C1085.63507813 177.46332031 1086.18421875 176.71179688 1086.75 175.9375 C1087.32492187 175.14601562 1087.89984375 174.35453125 1088.4921875 173.5390625 C1093.22035934 167.04038476 1097.99066675 160.57274745 1102.76660156 154.10913086 C1106.7124822 148.76406758 1110.61866837 143.39208257 1114.5 138 C1121.84003533 127.80643537 1129.30454606 117.70598373 1136.77050781 107.60449219 C1143.05501735 99.09906265 1149.32019635 90.58191379 1155.5 82 C1162.84024221 71.80658134 1170.30454358 61.70598709 1177.77050781 51.60449219 C1184.09973373 43.0385437 1190.40597438 34.45889459 1196.625 25.8125 C1200.94314298 19.81085631 1205.31388157 13.85254693 1209.75 7.9375 C1210.52077881 6.90943237 1210.52077881 6.90943237 1211.30712891 5.8605957 C1214.86445984 1.13554016 1214.86445984 1.13554016 1216 0 C1219.16026775 -0.09807612 1222.29869997 -0.12990232 1225.45936584 -0.12025452 C1226.46477415 -0.12110894 1227.47018246 -0.12196337 1228.50605768 -0.12284368 C1231.902575 -0.12450152 1235.29904381 -0.11897217 1238.69555664 -0.11352539 C1241.11931863 -0.11324356 1243.54308071 -0.11340117 1245.96684265 -0.1139679 C1251.19920897 -0.11419621 1256.43156415 -0.11134486 1261.66392708 -0.10573006 C1269.2291279 -0.09761718 1276.7943227 -0.09500006 1284.3595274 -0.09374207 C1296.63234785 -0.09155121 1308.90516167 -0.08489022 1321.17797852 -0.07543945 C1333.10278286 -0.0662662 1345.02758542 -0.05918494 1356.95239258 -0.05493164 C1358.05419986 -0.05453756 1358.05419986 -0.05453756 1359.17826588 -0.05413551 C1362.86307676 -0.05283051 1366.54788766 -0.05156679 1370.23269856 -0.05032361 C1400.82180379 -0.03994995 1431.41090098 -0.02225661 1462 0 C1460.25095469 3.62156973 1458.10381398 6.81223942 1455.75 10.0625 C1455.31526367 10.66682861 1454.88052734 11.27115723 1454.43261719 11.89379883 C1448.95313479 19.48775048 1443.38122777 27.0144034 1437.81445312 34.54443359 C1434.87205307 38.52649223 1431.93635163 42.51348054 1429 46.5 C1427.83594846 48.07943516 1426.67188595 49.65886223 1425.5078125 51.23828125 C1423.14656803 54.44263898 1420.78741454 57.64852217 1418.4296875 60.85546875 C1412.50190275 68.91517608 1406.54832033 76.95324903 1400.53417969 84.94873047 C1394.89690914 92.4520678 1389.34128721 100.01530541 1383.78222656 107.57666016 C1380.85769254 111.55322518 1377.92864567 115.52646271 1375 119.5 C1373.83331112 121.08331696 1372.66664447 122.66665031 1371.5 124.25 C1350.5 152.75 1329.5 181.25 1308.5 209.75 C1307.92233887 210.5339917 1307.34467773 211.3179834 1306.74951172 212.12573242 C1305.58456151 213.70668983 1304.41952266 215.28758192 1303.25439453 216.8684082 C1300.3107302 220.86255828 1297.36868654 224.8578843 1294.4296875 228.85546875 C1288.50190275 236.91517608 1282.54832033 244.95324903 1276.53417969 252.94873047 C1270.89690914 260.4520678 1265.34128721 268.01530541 1259.78222656 275.57666016 C1256.85769254 279.55322518 1253.92864567 283.52646271 1251 287.5 C1249.83331112 289.08331696 1248.66664447 290.66665031 1247.5 292.25 C1235.83333333 308.08333333 1224.16666667 323.91666667 1212.5 339.75 C1211.92161377 340.5349585 1211.34322754 341.31991699 1210.74731445 342.12866211 C1209.58962185 343.6998048 1208.43190729 345.27093131 1207.27416992 346.84204102 C1204.2200126 350.98675346 1201.16632354 355.13180988 1198.11328125 359.27734375 C1197.47712891 360.14101563 1196.84097656 361.0046875 1196.18554688 361.89453125 C1194.96665618 363.54937555 1193.74789912 365.20431828 1192.52929688 366.859375 C1191.97951172 367.60574219 1191.42972656 368.35210937 1190.86328125 369.12109375 C1190.38157471 369.7752124 1189.89986816 370.42933105 1189.40356445 371.10327148 C1188 373 1188 373 1186.43632478 374.82521653 C1184.75846569 377.36571452 1184.62225907 378.6775053 1184.61523914 381.69326401 C1184.60105433 383.11076041 1184.60105433 383.11076041 1184.58658296 384.55689311 C1184.59143053 385.59190684 1184.59627811 386.62692056 1184.60127258 387.69329834 C1184.59462576 388.79519162 1184.58797893 389.89708491 1184.58113068 391.0323689 C1184.56242646 394.73749254 1184.56511103 398.44229536 1184.56762695 402.14746094 C1184.55861432 404.79827759 1184.54841996 407.44906506 1184.53674316 410.09986877 C1184.51393727 415.81345981 1184.50206864 421.5269898 1184.49761391 427.24062347 C1184.49115732 435.5015763 1184.46822866 443.76241867 1184.44127061 452.02332702 C1184.39798152 465.42585483 1184.3680269 478.828378 1184.34643555 492.23095703 C1184.32543221 505.25083708 1184.29812854 518.2706789 1184.26245117 531.29052734 C1184.26023766 532.10116367 1184.25802415 532.91179999 1184.25574356 533.74700105 C1184.23838341 540.08664528 1184.22065765 546.42628848 1184.20281637 552.76593137 C1184.11544902 583.84393054 1184.05997235 614.92191257 1184 646 C1113.38 646 1042.76 646 970 646 C970.13535156 616.98642578 970.13535156 616.98642578 970.2734375 587.38671875 C970.29937067 575.123001 970.32183845 562.85942341 970.328125 550.59570312 C970.33161094 544.15047095 970.33597179 537.70524027 970.34179688 531.26000977 C970.34249042 530.45230961 970.34318397 529.64460946 970.34389853 528.81243354 C970.35633934 515.80685289 970.41808334 502.80195644 970.49833374 489.79663756 C970.57970831 476.42949109 970.60741475 463.0629931 970.58627188 449.69561225 C970.57490828 441.46002371 970.60439672 433.226732 970.6877351 424.9915484 C970.74101307 419.32875915 970.74171852 413.6674114 970.70284949 408.00451275 C970.68198052 404.74579854 970.69043475 401.49206085 970.74625206 398.23364067 C971.02170002 381.11873029 968.4714542 370.90271676 956.84937596 358.11102545 C953.63419029 354.4409557 950.84593905 350.4581713 948 346.5 C946.83515672 344.91532474 945.6687029 343.33183093 944.5 341.75 C867.49999999 237.24999999 867.49999999 237.24999999 865.74951172 234.87426758 C864.58456151 233.29331017 863.41952266 231.71241808 862.25439453 230.1315918 C859.3107302 226.13744172 856.36868654 222.1421157 853.4296875 218.14453125 C847.98363105 210.73980537 842.52542234 203.34575634 837 196 C830.86971479 187.8501105 824.82289741 179.6397739 818.78222656 171.42333984 C815.85769254 167.44677482 812.92864567 163.47353729 810 159.5 C808.83331112 157.91668304 807.66664447 156.33334969 806.5 154.75 C805.63375 153.574375 805.63375 153.574375 804.75 152.375 C743.5 69.25000001 743.5 69.25000001 741.74951172 66.87426758 C740.58456151 65.29331017 739.41952266 63.71241808 738.25439453 62.1315918 C735.3107302 58.13744172 732.36868654 54.1421157 729.4296875 50.14453125 C723.96604552 42.71616451 718.48662422 35.30230349 712.9375 27.9375 C706.52527479 19.36536735 700.26770551 10.67836148 694 2 C693.505 321.77 693.505 321.77 693 648 C615.45 648 537.9 648 458 648 C454.7 643.38 451.4 638.76 448 634 C445.75803188 630.93087404 443.51182044 627.86678308 441.25 624.8125 C440.04684628 623.18361496 438.84372214 621.55470808 437.640625 619.92578125 C437.03798828 619.11061035 436.43535156 618.29543945 435.81445312 617.45556641 C432.87205315 613.47350788 429.9362956 609.48656062 427 605.5 C425.83336666 603.91664211 424.66669996 602.3333088 423.5 600.75 C411.83333333 584.91666667 400.16666667 569.08333333 388.5 553.25 C387.92241943 552.46616943 387.34483887 551.68233887 386.74975586 550.87475586 C385.58379194 549.29231815 384.41793896 547.70979869 383.25219727 546.12719727 C380.32568557 542.15448113 377.39722466 538.18323006 374.46484375 534.21484375 C368.72576518 526.44400126 363.01570381 518.65511304 357.375 510.8125 C352.83158862 504.49578305 348.20716413 498.24819713 343.51904297 492.03833008 C339.2144665 486.32173385 335.03061388 480.52242217 330.85546875 474.7109375 C327.29352732 469.76332434 323.67328934 464.86541227 320 460 C315.19398161 453.63424477 310.5092235 447.18861038 305.85546875 440.7109375 C302.29352732 435.76332434 298.67328934 430.86541227 295 426 C290.19398161 419.63424477 285.5092235 413.18861038 280.85546875 406.7109375 C277.29352732 401.76332434 273.67328934 396.86541227 270 392 C265.19398161 385.63424477 260.5092235 379.18861038 255.85546875 372.7109375 C252.29352732 367.76332434 248.67328934 362.86541227 245 358 C240.19398161 351.63424477 235.5092235 345.18861038 230.85546875 338.7109375 C227.29352577 333.7633222 223.6732188 328.86546772 220 324 C215.55571316 318.11172911 211.1923842 312.16947566 206.875 306.1875 C206.318125 305.41599609 205.76125 304.64449219 205.1875 303.84960938 C203.08149953 300.92373559 201.0000161 298.00002415 199 295 C198.67 411.49 198.34 527.98 198 648 C132.66 648 67.32 648 0 648 C0 434.16 0 220.32 0 0 Z " fill="#03233B" transform="translate(1538,3)"/>
<path d="M0 0 C82.355625 -0.061875 164.71125 -0.12375 249.5625 -0.1875 C275.5404126 -0.21481201 301.5183252 -0.24212402 328.28344727 -0.27026367 C360.07214355 -0.28381348 360.07214355 -0.28381348 374.96665955 -0.28633118 C386.02188307 -0.28930243 397.07705848 -0.30219071 408.13226434 -0.32002028 C419.43818797 -0.33800508 430.74406645 -0.34424813 442.05000764 -0.34033485 C448.17161947 -0.33854039 454.29312731 -0.3412313 460.4147197 -0.35764539 C524.97582579 -0.52212487 598.26007501 3.31769839 650 47 C650.87688477 47.73452393 650.87688477 47.73452393 651.77148438 48.48388672 C676.54363037 69.51801852 691.33191463 99.81462002 694.71875 132.0546875 C697.44164663 172.25232174 691.54222591 210.96888387 664.23632812 242.34570312 C662.83842385 243.91081153 661.42378779 245.45842212 660 247 C659.53899902 247.5048291 659.07799805 248.0096582 658.60302734 248.52978516 C641.49043569 267.0709062 613.31147923 288.02868837 587 289.125 C586.01 289.063125 586.01 289.063125 585 289 C585 289.66 585 290.32 585 291 C585.60803467 291.04318359 586.21606934 291.08636719 586.8425293 291.13085938 C593.06061605 291.6511714 598.82641151 292.75879168 604.8125 294.5 C606.16057739 294.89094849 606.16057739 294.89094849 607.53588867 295.28979492 C634.59532436 303.4516228 658.72774531 317.38969648 679 337 C679.93714844 337.88558594 680.87429688 338.77117187 681.83984375 339.68359375 C697.85149644 355.15628478 709.6935504 373.98268202 717 395 C717.43828125 396.20140625 717.8765625 397.4028125 718.328125 398.640625 C719.75635366 402.70950867 720.92367748 406.82530973 722 411 C722.19899902 411.76103027 722.39799805 412.52206055 722.60302734 413.30615234 C729.65740576 441.99164688 729.11269821 477.39222978 722 506 C721.78569336 506.8760791 721.57138672 507.7521582 721.35058594 508.65478516 C712.86232581 542.13213713 693.76181489 573.13180716 666 594 C665.47712402 594.39783691 664.95424805 594.79567383 664.41552734 595.20556641 C623.99816613 625.79006501 573.80796568 637.7867095 524.1875 642.75 C523.03475586 642.86569336 521.88201172 642.98138672 520.69433594 643.10058594 C493.93530211 645.53861477 467.04005967 645.14089153 440.20078044 645.11607273 C434.19557844 645.11166251 428.19037717 645.11317018 422.18517399 645.11389065 C410.56204911 645.11441934 398.93893204 645.10983111 387.31580916 645.10338932 C373.85315751 645.09615327 360.39051047 645.0953926 346.92785645 645.09460449 C311.43106974 645.08936679 275.93428475 645.07540555 240.4375 645.0625 C121.4209375 645.0315625 121.4209375 645.0315625 0 645 C0 432.15 0 219.3 0 0 Z M199 135 C199 171.63 199 208.26 199 246 C240.19921015 246.0874358 240.19921015 246.0874358 281.3984375 246.14648438 C286.9645185 246.15235719 292.53059924 246.15841841 298.09667969 246.16479492 C298.79421049 246.16558617 299.4917413 246.16637741 300.2104094 246.16719264 C311.44297117 246.18020853 322.67548645 246.20384215 333.90802073 246.23145839 C345.45230432 246.25960247 356.99655535 246.27597093 368.54087257 246.28226548 C375.01811906 246.28616492 381.49526045 246.29528329 387.97247314 246.31719017 C394.07913404 246.33767488 400.18564733 246.34380969 406.29233932 246.33932304 C408.5238564 246.34014291 410.75537882 246.34603661 412.986866 246.35761642 C435.1603057 246.46695814 457.13944552 244.81403656 474.21875 228.9375 C484.40172715 218.29856865 488.39728754 203.98061358 488.1484375 189.47265625 C487.44417936 177.74119834 484.23872308 166.43227553 477 157 C476.60554688 156.45085937 476.21109375 155.90171875 475.8046875 155.3359375 C465.66338704 142.18122204 448.25290242 137.44717595 432.52573895 135.27451873 C424.01864711 134.34989584 415.40886934 134.6144164 406.86499023 134.65942383 C404.58664969 134.66027189 402.30830833 134.65979147 400.02996826 134.65809631 C393.89679963 134.65724194 387.76381004 134.6747767 381.63068271 134.69581819 C375.20188242 134.7146787 368.77307722 134.71634277 362.34425354 134.71989441 C351.57069464 134.72813422 340.7972085 134.74682305 330.02368164 134.77368164 C318.93579422 134.80129488 307.84792464 134.82245824 296.76000977 134.83520508 C296.06752252 134.83600907 295.37503528 134.83681306 294.66156358 134.83764142 C288.6362195 134.84458164 282.61087494 134.85103924 276.58553028 134.85744953 C250.72362569 134.88558719 224.86189363 134.94537502 199 135 Z M199 376 C199 415.93 199 455.86 199 497 C242.58982931 497.11660566 242.58982931 497.11660566 286.1796875 497.1953125 C292.0725916 497.20314261 297.96549527 497.21122415 303.85839844 497.21972656 C304.59685934 497.22078156 305.33532024 497.22183655 306.09615874 497.22292352 C317.97904246 497.24026563 329.86184782 497.27177006 341.74468526 497.30861118 C353.96247103 497.34617156 366.1802161 497.36826754 378.39805722 497.37635398 C385.92191472 497.38181067 393.44555076 497.39897053 400.96934 497.43166587 C406.76302242 497.45554247 412.55656664 497.45778218 418.35028839 497.45243073 C420.70913546 497.4535214 423.06799177 497.46134576 425.42678833 497.4768219 C447.74755275 497.61595137 469.56232685 495.83717057 488 482 C488.92232422 481.34257812 488.92232422 481.34257812 489.86328125 480.671875 C499.84307116 472.97128323 506.3072311 459.35546787 508 447 C509.79639849 429.95987716 509.05108733 412.99520721 498.375 398.6875 C485.68223985 384.01819371 466.86773787 377.67422491 448 376 C444.52754399 375.86744397 441.05961381 375.86904147 437.58496094 375.87974548 C436.04950103 375.87846385 436.04950103 375.87846385 434.48302174 375.87715632 C431.06678813 375.87551448 427.65060406 375.88100163 424.234375 375.88647461 C421.78002422 375.88675679 419.32567336 375.88659815 416.87132263 375.8860321 C411.59433358 375.88580468 406.31735982 375.88863373 401.04037476 375.89426994 C393.41083866 375.90241353 385.78130854 375.90500309 378.15176857 375.90625793 C365.77191132 375.90844396 353.39206069 375.91509187 341.01220703 375.92456055 C328.98974642 375.93374628 316.96728762 375.94080996 304.94482422 375.94506836 C303.82100281 375.94547036 303.82100281 375.94547036 302.67447793 375.94588047 C296.15690259 375.94819347 289.63932719 375.9503462 283.12175179 375.95248318 C255.08116164 375.96188474 227.04058901 375.98180758 199 376 Z " fill="#03233B" transform="translate(745,3)"/>
<path d="M0 0 C9.9416867 2.76895899 19.53112245 6.44604406 29.1875 10.0625 C31.10432078 10.77793659 33.02115041 11.49334946 34.93798828 12.20874023 C49.40816637 17.61803328 63.83870246 23.12873088 78.25848389 28.67071533 C95.58388788 35.3289401 112.94185734 41.89849736 130.3125 48.4375 C135.51703308 50.39685399 140.72149991 52.35638372 145.92578125 54.31640625 C146.56415672 54.55682081 147.2025322 54.79723537 147.86025238 55.04493523 C161.94672714 60.35070496 176.01807211 65.69605167 190.08648682 71.04949951 C203.68187087 76.22283013 217.28426941 81.3769272 230.8951416 86.5093689 C264.30844122 99.11111268 297.65706034 111.87635549 330.91357422 124.88635254 C343.26663876 129.71853894 355.63171656 134.51941544 368 139.3125 C369.02196472 139.70860474 370.04392944 140.10470947 371.09686279 140.51281738 C378.39766095 143.34251734 385.69878553 146.17137442 393 149 C401.33356223 152.22857621 409.66697916 155.45752667 418 158.6875 C419.02279053 159.08393707 420.04558105 159.48037415 421.09936523 159.88882446 C435.73770011 165.56348076 450.36735585 171.25997977 464.99072266 176.9730835 C485.22793082 184.87855203 505.48703411 192.72739725 525.74609375 200.57666016 C531.92485809 202.97070272 538.10313541 205.36599999 544.28125 207.76171875 C545.29144196 208.15344269 546.30163391 208.54516663 547.34243774 208.94876099 C552.41111514 210.91429656 557.47974044 212.87996645 562.54833984 214.84570312 C572.05090218 218.5308896 581.55387048 222.21501811 591.05828857 225.89541626 C595.50996712 227.6193156 599.96141287 229.34381561 604.4128418 231.06835938 C606.51933406 231.88425088 608.62593827 232.69985344 610.73266602 233.51513672 C616.33345545 235.68262909 621.93198956 237.85572091 627.52697754 240.03814697 C629.91123689 240.96547663 632.29864423 241.88428677 634.68652344 242.80224609 C636.06981761 243.34041912 637.45296657 243.87896561 638.8359375 244.41796875 C640.01462402 244.87324951 641.19331055 245.32853027 642.40771484 245.79760742 C645 247 645 247 646 249 C631.69162062 254.78513571 617.30978571 260.35130164 602.875 265.8125 C600.6874272 266.64173505 598.4999289 267.47116667 596.3125 268.30078125 C591.78641814 270.01719275 587.26002316 271.7327746 582.73339844 273.44775391 C573.1846004 277.06620061 563.63974762 280.69502215 554.0947876 284.32357788 C548.89670515 286.29952582 543.69833745 288.27472303 538.5 290.25 C536.41666532 291.04166311 534.33333198 291.83332978 532.25 292.625 C511.41666667 300.54166667 490.58333333 308.45833333 469.75 316.375 C468.20318542 316.96278984 468.20318542 316.96278984 466.62512207 317.56245422 C464.54138238 318.3542749 462.45764214 319.14609415 460.37390137 319.93791199 C455.17178092 321.91471065 449.96966981 323.89153387 444.76757812 325.8684082 C435.31843998 329.45919725 425.86922902 333.04979414 416.41967773 336.63949585 C394.24467005 345.06336875 372.07101873 353.49071473 349.90649414 361.94213867 C340.51294361 365.52322702 331.11590714 369.0949278 321.71484375 372.65625 C297.07257827 381.99400351 272.47737015 391.43925377 247.94482422 401.06152344 C239.633428 404.32091864 231.31662859 407.56648481 223 410.8125 C222.16478821 411.1386026 221.32957642 411.4647052 220.46905518 411.8006897 C205.22086396 417.75378572 189.95863908 423.67040402 174.69458008 429.58267212 C159.78465221 435.35868071 144.88714399 441.16553312 130 447 C114.07513993 453.24116142 98.13702088 459.44713066 82.1875 465.625 C66.57724033 471.67193237 50.9710419 477.72897983 35.375 483.8125 C34.12413101 484.30003754 34.12413101 484.30003754 32.84799194 484.79742432 C30.4686933 485.72490976 28.08972747 486.65324203 25.7109375 487.58203125 C24.60269371 488.01437073 24.60269371 488.01437073 23.47206116 488.45544434 C19.83908372 489.87615299 16.21365265 491.31295784 12.59863281 492.77880859 C11.55505112 493.20114021 11.55505112 493.20114021 10.49038696 493.63200378 C8.60245181 494.39813255 6.71643797 495.16899111 4.83056641 495.94018555 C2 497 2 497 0 497 C1.63995367 491.7227132 4.96706033 487.72507233 8.25 483.375 C9.52618638 481.66417044 10.80222394 479.95322986 12.078125 478.2421875 C12.73103516 477.37045898 13.38394531 476.49873047 14.05664062 475.60058594 C17.05909107 471.58273391 20.02880833 467.54098901 23 463.5 C24.16648873 461.91653557 25.33315595 460.33320261 26.5 458.75 C27.36625 457.574375 27.36625 457.574375 28.25 456.375 C33.5 449.25 33.5 449.25 35.25024414 446.87475586 C36.41620806 445.29231815 37.58206104 443.70979869 38.74780273 442.12719727 C41.67431443 438.15448113 44.60277534 434.18323006 47.53515625 430.21484375 C53.22964599 422.50460543 58.89882943 414.77836411 64.5 407 C70.68101263 398.41640731 76.94785667 389.89798751 83.23388672 381.39111328 C86.15956103 377.43008838 89.07950306 373.46484283 92 369.5 C93.1666389 367.91664621 94.33330558 366.33331288 95.5 364.75 C96.36625 363.574375 96.36625 363.574375 97.25 362.375 C130.5 317.25 130.5 317.25 132.25024414 314.87475586 C133.41620806 313.29231815 134.58206104 311.70979869 135.74780273 310.12719727 C138.67431443 306.15448113 141.60277534 302.18323006 144.53515625 298.21484375 C150.81563443 289.71093391 157.06455259 281.18732649 163.21557617 272.58911133 C165.91815393 268.82503013 168.66703445 265.11219785 171.515625 261.45703125 C172.07942871 260.72830811 172.64323242 259.99958496 173.22412109 259.2487793 C174.29947194 257.86539021 175.38528425 256.49005019 176.48291016 255.12426758 C178.11271955 253.08153579 178.11271955 253.08153579 180 250 C179.48474247 245.95530134 177.17669428 243.13614281 174.8125 239.9375 C174.37325195 239.33317139 173.93400391 238.72884277 173.48144531 238.10620117 C171.9946446 236.06556975 170.49796289 234.0324495 169 232 C167.90486843 230.50787084 166.80981873 229.01568158 165.71484375 227.5234375 C162.75493165 223.49571168 159.78581505 219.47484983 156.81445312 215.45556641 C153.87205325 211.47350802 150.9362252 207.48661232 148 203.5 C144.49112785 198.73617273 140.98102195 193.97328199 137.46484375 189.21484375 C131.72576518 181.44400126 126.01570381 173.65511304 120.375 165.8125 C116.31032322 160.16136904 112.1931778 154.55644303 108 149 C103.24567691 142.69997489 98.6023014 136.32702293 93.99389648 129.91967773 C88.31443685 122.03008877 82.54325703 114.20931251 76.76611328 106.39111328 C73.84043897 102.43008838 70.92049694 98.46484283 68 94.5 C66.8333611 92.91664621 65.66669442 91.33331288 64.5 89.75 C52.83333333 73.91666667 41.16666667 58.08333333 29.5 42.25 C28.9217749 41.4652832 28.3435498 40.68056641 27.74780273 39.87207031 C26.58839358 38.29855175 25.42905046 36.72498454 24.26977539 35.15136719 C21.24262576 31.04245361 18.21412149 26.93454784 15.18359375 22.828125 C14.55646484 21.97798828 13.92933594 21.12785156 13.28320312 20.25195312 C12.09092326 18.63575153 10.89824319 17.01984507 9.70507812 15.40429688 C8.63447891 13.9527015 7.56584671 12.49965261 6.49951172 11.04492188 C5.5009482 9.68315566 4.49736487 8.32505602 3.48876953 6.97070312 C-0 2.22431116 -0 2.22431116 0 0 Z " fill="#2A9CAE" transform="translate(0,79)"/>
</svg>
